<?xml version="1.0" standalone="no"?>
<!DOCTYPE svg PUBLIC "-//W3C//DTD SVG 20010904//EN"
 "http://www.w3.org/TR/2001/REC-SVG-20010904/DTD/svg10.dtd">
<svg version="1.0" xmlns="http://www.w3.org/2000/svg"
 width="724.000000pt" height="724.000000pt" viewBox="0 0 724.000000 724.000000"
 preserveAspectRatio="xMidYMid meet">
<metadata>
Created by potrace 1.11, written by Peter Selinger 2001-2013
</metadata>
<g transform="translate(0.000000,724.000000) scale(0.100000,-0.100000)"
fill="#000000" stroke="none">
<path d="M1297 6384 c-1 -1 -18 -5 -37 -8 -136 -22 -282 -131 -346 -258 -56
-111 -58 -127 -58 -590 l-1 -388 -200 -1 c-110 0 -208 -2 -217 -4 -78 -15
-155 -61 -207 -122 -45 -54 -44 -52 -65 -112 -18 -52 -19 -98 -19 -1230 0
-893 3 -1187 12 -1221 34 -123 129 -218 250 -250 26 -7 123 -11 242 -11 110 0
200 -3 200 -7 1 -4 3 -203 4 -442 2 -239 6 -448 9 -465 13 -69 17 -83 48 -145
64 -130 207 -238 351 -265 95 -17 4687 -14 4742 4 175 55 297 166 350 317 27
77 27 74 30 544 2 245 4 448 4 452 1 4 88 7 194 7 215 -1 251 3 321 38 72 36
148 122 167 188 1 6 8 28 14 50 18 64 13 2365 -5 2425 -26 85 -97 170 -175
209 -73 36 -102 40 -340 40 l-180 1 -1 398 c-2 454 0 427 -26 509 -45 145
-173 268 -330 319 -49 16 -209 17 -2391 19 -1285 1 -2338 0 -2340 -1z m4646
-416 c16 -11 30 -32 35 -55 7 -29 10 -2053 3 -2095 0 -5 -8 -8 -16 -8 -26 0
-102 -85 -130 -146 -14 -32 -38 -92 -51 -133 -24 -74 -94 -347 -110 -426 -4
-22 -8 -44 -9 -50 -2 -5 -17 -77 -34 -158 -32 -155 -65 -228 -141 -317 l-30
-35 -36 40 c-20 22 -65 89 -101 149 -37 60 -74 117 -85 128 -10 10 -18 21 -18
25 0 13 -85 84 -107 89 -13 4 -23 9 -24 13 0 3 -2 13 -4 21 -2 8 -6 31 -10 50
-3 19 -10 51 -15 70 -5 19 -11 46 -14 60 -3 14 -12 54 -21 90 -9 36 -18 72
-20 80 -1 8 -11 42 -21 75 -10 33 -18 62 -19 65 -3 14 -20 61 -43 120 -31 79
-72 141 -113 171 -38 27 -107 32 -152 12 -32 -15 -97 -89 -97 -111 0 -7 -4
-12 -10 -12 -5 0 -10 -9 -10 -20 0 -11 -4 -20 -10 -20 -5 0 -9 -3 -8 -7 1 -5
-15 -58 -35 -119 -20 -61 -38 -121 -41 -135 -2 -13 -18 -80 -35 -149 -16 -69
-37 -161 -46 -205 -8 -44 -17 -85 -20 -92 -3 -8 -22 0 -56 22 -28 19 -58 35
-68 36 -9 0 -25 2 -36 4 -38 8 -119 -24 -161 -62 -43 -40 -129 -158 -144 -199
-14 -37 -27 -29 -35 24 -5 26 -9 52 -11 57 -10 41 -36 165 -39 185 -2 14 -13
63 -24 110 -11 47 -22 97 -24 110 -14 73 -84 323 -104 370 -3 8 -7 17 -7 20
-1 3 -13 30 -28 60 -64 130 -149 176 -242 130 -24 -11 -55 -37 -69 -58 -30
-44 -67 -113 -67 -125 0 -5 -6 -23 -13 -40 -22 -50 -81 -252 -92 -312 -2 -11
-6 -31 -9 -45 -4 -14 -8 -34 -11 -45 -2 -11 -11 -51 -19 -90 -8 -38 -18 -81
-21 -95 -9 -43 -17 -84 -20 -105 -2 -11 -4 -20 -5 -20 -2 0 -5 -13 -13 -60
-18 -95 -25 -111 -91 -202 -36 -49 -46 -55 -67 -39 -22 17 -99 127 -99 143 0
7 -4 13 -9 13 -5 0 -14 14 -21 30 -7 17 -16 30 -19 30 -4 0 -14 15 -23 33 -24
49 -111 140 -156 162 -40 20 -40 20 -61 120 -12 55 -24 111 -27 125 -2 14 -19
77 -36 140 -17 63 -31 120 -32 125 -1 6 -4 15 -7 20 -3 6 -12 30 -19 55 -21
67 -75 171 -104 202 -47 49 -87 60 -172 49 -19 -2 -80 -63 -108 -108 -14 -24
-23 -43 -20 -43 4 0 2 -6 -3 -12 -29 -36 -101 -290 -158 -556 -18 -85 -35
-156 -38 -158 -3 -3 -26 9 -51 27 -39 28 -55 33 -103 33 -98 0 -166 -52 -259
-199 -78 -121 -71 -114 -81 -77 -4 18 -8 744 -8 1615 1 1474 2 1584 18 1607 9
13 26 29 37 35 14 7 698 11 2313 10 2165 0 2294 -1 2320 -17z m-5092 -1246 c6
-94 2 -2125 -5 -2129 -15 -10 -289 -5 -295 5 -5 8 -7 2018 -2 2119 1 21 5 21
151 21 134 1 150 -1 151 -16z m5844 -1057 l0 -1075 -55 -1 c-127 -2 -243 0
-247 5 -3 3 -6 1597 -3 2079 l0 67 153 0 152 0 0 -1075z m-4536 -137 c7 -24
17 -50 21 -59 9 -18 96 -359 105 -412 3 -18 10 -47 15 -64 12 -45 8 -57 -28
-97 -18 -20 -32 -40 -32 -45 0 -5 -3 -11 -8 -13 -4 -1 -40 -55 -79 -118 -40
-63 -84 -128 -98 -145 l-25 -30 -40 45 c-64 72 -74 102 -60 169 12 57 17 84
24 124 2 12 9 42 15 67 5 25 12 56 15 70 2 14 17 77 31 140 14 63 28 124 30
135 15 72 84 275 94 275 4 0 13 -19 20 -42z m1310 -50 c32 -100 62 -211 87
-323 26 -122 46 -209 50 -230 3 -11 7 -33 9 -49 2 -15 7 -36 10 -46 3 -10 8
-34 10 -55 3 -20 7 -41 10 -45 3 -4 7 -25 11 -46 5 -37 3 -35 -40 36 -128 212
-193 271 -301 275 -43 1 -41 -1 -31 65 8 49 87 356 107 414 21 61 37 96 44 96
2 0 17 -42 34 -92z m1259 79 c-1 -2 3 -11 10 -19 7 -9 14 -24 16 -34 3 -11 11
-40 20 -66 16 -47 90 -337 100 -393 18 -105 19 -97 -22 -144 -22 -24 -75 -100
-117 -169 -43 -68 -90 -138 -106 -154 -33 -37 -39 -34 -94 47 l-37 53 17 84
c9 45 19 92 21 103 2 11 9 44 15 72 5 29 10 55 10 58 0 2 5 19 10 37 5 18 12
50 15 72 4 21 22 95 40 165 19 69 36 134 39 145 6 26 45 138 52 149 3 4 7 6
10 3 2 -2 3 -6 1 -9z m1257 -326 c0 -244 -1 -259 -17 -250 -10 5 -38 11 -63
12 l-46 2 5 35 c3 19 7 42 10 50 3 8 7 26 10 40 2 14 18 81 36 150 17 69 32
130 34 135 4 17 27 85 29 85 1 0 2 -117 2 -259z m-4347 -477 c64 -77 68 -92
48 -186 -26 -127 -26 -130 -37 -178 -6 -25 -13 -56 -15 -70 -7 -39 -74 -313
-81 -330 -3 -8 -7 -18 -8 -22 -2 -5 -4 -10 -5 -13 -1 -3 -3 -8 -4 -12 -11 -49
-37 -113 -46 -113 -12 0 -98 288 -126 425 -2 11 -6 29 -8 40 -3 11 -9 44 -15
72 l-10 53 50 67 c28 37 58 82 67 100 9 18 19 33 24 33 4 0 8 5 8 11 0 19 102
159 116 159 7 0 26 -16 42 -36z m1709 9 c22 -26 153 -230 153 -239 0 -7 44
-58 91 -105 27 -27 64 -52 90 -61 l44 -15 18 -79 c112 -507 190 -671 323 -679
79 -5 132 34 184 136 28 54 86 217 94 265 3 13 7 27 10 32 3 5 7 19 10 33 2
13 14 67 26 119 12 52 23 103 25 113 2 10 6 26 9 35 3 9 8 33 11 52 8 46 11
47 40 20 14 -13 25 -20 25 -17 0 4 10 1 23 -8 27 -17 89 -22 132 -10 74 21
150 102 240 258 22 37 42 67 46 67 4 0 10 -17 15 -37 4 -21 8 -40 9 -43 1 -5
6 -31 20 -100 9 -44 13 -64 30 -140 9 -41 18 -84 20 -95 7 -39 16 -81 32 -140
8 -33 17 -68 19 -77 8 -34 13 -53 33 -118 72 -241 134 -333 234 -346 104 -15
185 80 252 296 29 93 65 226 71 260 2 14 19 93 38 176 19 83 37 164 40 180 2
16 5 29 6 29 1 0 3 9 5 20 1 11 5 34 9 50 3 17 8 40 10 53 6 27 35 75 71 117
32 36 44 30 95 -41 l34 -49 2 -660 c0 -363 -3 -672 -7 -688 -10 -35 -32 -56
-66 -66 -36 -9 -4572 -7 -4598 2 -11 4 -29 20 -40 34 -18 26 -19 45 -20 299 0
150 3 270 8 267 4 -2 7 -11 7 -20 0 -31 78 -179 111 -211 92 -89 206 -58 276
75 44 82 113 298 148 461 3 12 7 32 11 45 3 12 7 33 10 47 2 14 9 43 14 65 6
22 12 51 14 65 4 26 20 28 46 5 57 -49 152 -62 211 -29 55 30 132 116 190 213
52 87 68 105 70 79 2 -31 9 -69 28 -153 10 -49 27 -126 36 -170 9 -44 20 -96
25 -115 5 -19 12 -48 14 -65 3 -16 17 -70 31 -120 14 -49 27 -99 30 -109 40
-168 127 -312 201 -336 117 -39 202 44 278 271 26 78 86 307 105 399 6 30 13
64 16 75 2 11 17 84 33 161 18 88 38 156 52 180 35 58 80 114 92 114 6 0 21
-12 35 -27z m850 10 c28 -35 88 -128 88 -138 0 -5 -5 -35 -13 -65 -7 -30 -15
-66 -18 -80 -21 -108 -30 -150 -56 -260 -16 -69 -32 -136 -34 -149 -10 -48
-75 -240 -84 -246 -18 -11 -81 195 -140 465 -11 52 -23 102 -25 110 -3 9 20
49 50 90 30 41 55 81 55 88 0 6 5 12 10 12 6 0 10 5 10 10 0 25 114 180 132
180 6 0 17 -8 25 -17z m-1524 -290 c35 -46 102 -105 135 -119 20 -9 56 -16 80
-16 l43 0 -6 -41 c-4 -23 -9 -45 -11 -49 -5 -7 -7 -16 -19 -78 -3 -14 -14 -59
-25 -100 -12 -41 -22 -82 -25 -91 -5 -25 -32 -100 -48 -137 l-14 -33 -16 43
c-40 110 -80 252 -113 408 -2 14 -7 33 -10 42 -7 23 -13 57 -18 95 -3 18 -7
36 -10 41 -3 5 -8 24 -10 43 -3 19 -10 52 -15 74 -16 63 -14 62 29 -4 22 -34
46 -69 53 -78z m2539 53 c10 -11 18 -23 18 -28 0 -4 10 -20 23 -35 85 -101
167 -143 240 -122 24 7 27 5 23 -9 -7 -27 -18 -75 -22 -102 -20 -106 -101
-380 -119 -399 -11 -11 -19 3 -45 85 -18 55 -33 106 -36 114 -34 141 -79 336
-95 415 -11 55 -22 109 -25 120 -5 20 -5 20 7 0 7 -11 21 -29 31 -39z"/>
<path d="M2099 5125 c-188 -46 -327 -217 -334 -409 -4 -127 41 -241 134 -332
128 -128 319 -160 488 -84 64 29 69 33 126 86 77 72 128 189 131 299 5 197
-127 378 -319 437 -52 16 -167 17 -226 3z"/>
<path d="M4901 5124 c-153 -41 -269 -155 -317 -313 -8 -29 -12 -79 -10 -136 3
-77 8 -100 36 -160 59 -124 189 -227 315 -250 271 -50 520 154 523 427 1 177
-92 326 -253 403 -61 30 -86 36 -156 39 -53 3 -104 -1 -138 -10z"/>
</g>
</svg>
