<?xml version="1.0" encoding="UTF-8" standalone="no"?>
<!DOCTYPE svg PUBLIC "-//W3C//DTD SVG 1.1//EN" "http://www.w3.org/Graphics/SVG/1.1/DTD/svg11.dtd">
<svg version="1.1" xmlns:dc="http://purl.org/dc/elements/1.1/" xmlns="http://www.w3.org/2000/svg" xmlns:xl="http://www.w3.org/1999/xlink" viewBox="22 96 724 582" width="724" height="582">
  <defs/>
  <metadata> Produced by OmniGraffle 7.17.4\n2020-09-10 06:00:01 +0000</metadata>
  <g id="wave-robot-white" stroke-dasharray="none" fill-opacity="1" stroke="none" fill="none" stroke-opacity="1">
    <title>wave-robot-white</title>
    <g id="wave-robot-white_Layer_1">
      <title>Layer 1</title>
      <g id="Group_20">
        <g id="Graphic_26">
          <path d="M 157.55905 130.3937 L 610.6299 130.3937 C 627.19846 130.3937 640.6299 143.82516 640.6299 160.3937 L 640.6299 613.46456 C 640.6299 630.0331 627.19846 643.4646 610.6299 643.4646 L 157.55905 643.4646 C 140.99051 643.4646 127.55905 630.0331 127.55905 613.46456 L 127.55905 160.3937 C 127.55905 143.82516 140.99051 130.3937 157.55905 130.3937 Z" stroke="white" stroke-linecap="round" stroke-linejoin="miter" stroke-width="40"/>
        </g>
        <g id="Graphic_25">
          <circle cx="242.3622" cy="279.2126" r="24.0945265491816" fill="white"/>
          <circle cx="242.3622" cy="279.2126" r="24.0945265491816" stroke="white" stroke-linecap="round" stroke-linejoin="round" stroke-width="40"/>
        </g>
        <g id="Graphic_24">
          <circle cx="522.9921" cy="279.2126" r="24.0945265491816" fill="white"/>
          <circle cx="522.9921" cy="279.2126" r="24.0945265491816" stroke="white" stroke-linecap="round" stroke-linejoin="round" stroke-width="40"/>
        </g>
        <g id="Graphic_22">
          <path d="M 655.6299 255.1181 L 696.4961 255.1181 C 704.7803 255.1181 711.4961 261.83383 711.4961 270.1181 L 711.4961 495.2362 C 711.4961 503.5205 704.7803 510.2362 696.4961 510.2362 L 655.6299 510.2362 C 647.34565 510.2362 640.6299 503.5205 640.6299 495.2362 L 640.6299 270.1181 C 640.6299 261.83383 647.34565 255.1181 655.6299 255.1181 Z" stroke="white" stroke-linecap="round" stroke-linejoin="round" stroke-width="40"/>
        </g>
        <g id="Graphic_21">
          <path d="M 71.69291 255.1181 L 112.55905 255.1181 C 120.84333 255.1181 127.55905 261.83384 127.55905 270.1181 L 127.55905 495.2362 C 127.55905 503.5205 120.84333 510.2362 112.55905 510.2362 L 71.69291 510.2362 C 63.40864 510.2362 56.69291 503.5205 56.69291 495.2362 L 56.69291 270.1181 C 56.69291 261.83384 63.40864 255.1181 71.69291 255.1181 Z" stroke="white" stroke-linecap="round" stroke-linejoin="round" stroke-width="40"/>
        </g>
      </g>
      <g id="Graphic_31">
        <title>path1360</title>
        <path d="M 138.89764 479.03624 C 149.19343 530.05394 159.48922 581.07165 171.22642 581.07165 M 203.52551 479.0345 C 193.22972 530.0522 182.93393 581.0699 171.19673 581.0699 M 203.5235 479.0433 C 213.8193 428.0256 224.11508 377.00787 235.85228 377.00787 M 268.15136 479.045 C 257.85556 428.0273 247.55977 377.0096 235.8226 377.0096 M 268.16746 479.06695 C 278.46325 530.08466 288.75904 581.10236 300.49624 581.10236 M 332.79534 479.0652 C 322.49955 530.0829 312.20375 581.1006 300.46655 581.1006 M 332.7932 479.074 C 343.089 428.0563 353.3848 377.0386 365.122 377.0386 M 397.4211 479.0757 C 387.1253 428.058 376.8295 377.0403 365.0923 377.0403 M 397.4151 479.05103 C 407.7109 530.06874 418.0067 581.08644 429.7439 581.08644 M 462.043 479.0493 C 451.7472 530.067 441.4514 581.0847 429.7142 581.0847 M 462.04086 479.0581 C 472.33665 428.04037 482.63244 377.02267 494.36965 377.02267 M 526.66874 479.0598 C 516.37295 428.0421 506.07716 377.0244 494.33996 377.0244 M 526.6674 479.05216 C 536.9632 530.06986 547.259 581.08756 558.9962 581.08756 M 591.2953 479.0504 C 580.9995 530.0681 570.7037 581.0858 558.9665 581.0858 M 591.29326 479.0592 C 601.58906 428.0415 611.88484 377.0238 623.62204 377.0238" stroke="white" stroke-linecap="butt" stroke-linejoin="round" stroke-width="20"/>
      </g>
      <g id="Graphic_32">
        <title>path5806</title>
        <path d="M 160.3521 481.8165 C 153.51947 493.1178 146.68685 504.4191 138.89764 504.4191 M 160.35069 481.81844 C 167.18332 470.51716 174.01595 459.2159 181.80515 459.2159 M 203.2399 481.8188 C 196.40726 470.51754 189.57464 459.21626 181.78544 459.21626 M 203.239 481.81713 C 210.07163 493.1184 216.90428 504.4197 224.69346 504.4197 M 246.1282 481.81675 C 239.29557 493.11803 232.46295 504.4193 224.67375 504.4193 M 246.12686 481.8187 C 252.9595 470.5174 259.79212 459.2161 267.5813 459.2161 M 289.01605 481.8191 C 282.18344 470.5178 275.3508 459.2165 267.5616 459.2165 M 289.012 481.8136 C 295.8446 493.1149 302.67724 504.4162 310.46645 504.4162 M 331.9012 481.8132 C 325.06856 493.1145 318.23594 504.4158 310.44674 504.4158 M 331.89985 481.81517 C 338.7325 470.5139 345.5651 459.2126 353.3543 459.2126 M 374.78906 481.81555 C 367.95643 470.51427 361.1238 459.213 353.3346 459.213 M 374.79975 481.8204 C 381.63237 493.1217 388.465 504.423 396.2542 504.423 M 417.68896 481.82 C 410.8563 493.1213 404.0237 504.4226 396.2345 504.4226 M 417.68754 481.82197 C 424.52017 470.5207 431.3528 459.2194 439.142 459.2194 M 460.57676 481.82235 C 453.74413 470.52107 446.9115 459.2198 439.1223 459.2198 M 460.5728 481.8169 C 467.4054 493.11817 474.23804 504.41946 482.02723 504.41946 M 503.462 481.8165 C 496.62936 493.1178 489.79673 504.4191 482.00754 504.4191 M 503.4606 481.81844 C 510.2932 470.51716 517.12584 459.2159 524.91503 459.2159 M 546.3498 481.8188 C 539.51715 470.51754 532.6845 459.21626 524.8953 459.21626 M 546.3489 481.81713 C 553.1815 493.1184 560.01416 504.4197 567.80335 504.4197 M 589.2381 481.81675 C 582.4055 493.11803 575.57284 504.4193 567.78365 504.4193 M 589.2368 481.8187 C 596.0694 470.5174 602.902 459.2161 610.6912 459.2161 M 632.126 481.8191 C 625.2933 470.5178 618.4607 459.2165 610.6715 459.2165" stroke="white" stroke-linecap="butt" stroke-linejoin="round" stroke-width="20"/>
      </g>
    </g>
  </g>
</svg>
