<?xml version="1.0" encoding="UTF-8" standalone="no"?>
<!DOCTYPE svg PUBLIC "-//W3C//DTD SVG 1.1//EN" "http://www.w3.org/Graphics/SVG/1.1/DTD/svg11.dtd">
<svg version="1.1" xmlns:dc="http://purl.org/dc/elements/1.1/" xmlns="http://www.w3.org/2000/svg" xmlns:xl="http://www.w3.org/1999/xlink" viewBox="0 0 765.3543 765.3543" width="765.3543" height="765.3543">
  <defs/>
  <metadata> Produced by OmniGraffle 7.17.4\n2020-09-10 05:32:24 +0000</metadata>
  <g id="wave-robot_2" stroke-dasharray="none" fill-opacity="1" stroke="none" fill="none" stroke-opacity="1">
    <title>wave-robot 2</title>
    <g id="wave-robot_2_Layer_1">
      <title>Layer 1</title>
      <g id="Group_20">
        <g id="Graphic_26">
          <path d="M 157.55905 130.3937 L 610.6299 130.3937 C 627.19846 130.3937 640.6299 143.82516 640.6299 160.3937 L 640.6299 613.46456 C 640.6299 630.0331 627.19846 643.4646 610.6299 643.4646 L 157.55905 643.4646 C 140.99051 643.4646 127.55905 630.0331 127.55905 613.46456 L 127.55905 160.3937 C 127.55905 143.82516 140.99051 130.3937 157.55905 130.3937 Z" stroke="black" stroke-linecap="round" stroke-linejoin="miter" stroke-width="40"/>
        </g>
        <g id="Graphic_25">
          <circle cx="242.3622" cy="279.2126" r="24.0945265491816" fill="black"/>
          <circle cx="242.3622" cy="279.2126" r="24.0945265491816" stroke="black" stroke-linecap="round" stroke-linejoin="round" stroke-width="40"/>
        </g>
        <g id="Graphic_24">
          <circle cx="522.9921" cy="279.2126" r="24.0945265491816" fill="black"/>
          <circle cx="522.9921" cy="279.2126" r="24.0945265491816" stroke="black" stroke-linecap="round" stroke-linejoin="round" stroke-width="40"/>
        </g>
        <g id="Graphic_22">
          <path d="M 655.6299 255.1181 L 696.4961 255.1181 C 704.7803 255.1181 711.4961 261.83383 711.4961 270.1181 L 711.4961 495.2362 C 711.4961 503.5205 704.7803 510.2362 696.4961 510.2362 L 655.6299 510.2362 C 647.34565 510.2362 640.6299 503.5205 640.6299 495.2362 L 640.6299 270.1181 C 640.6299 261.83383 647.34565 255.1181 655.6299 255.1181 Z" stroke="black" stroke-linecap="round" stroke-linejoin="round" stroke-width="40"/>
        </g>
        <g id="Graphic_21">
          <path d="M 71.69291 255.1181 L 112.55905 255.1181 C 120.84333 255.1181 127.55905 261.83384 127.55905 270.1181 L 127.55905 495.2362 C 127.55905 503.5205 120.84333 510.2362 112.55905 510.2362 L 71.69291 510.2362 C 63.40864 510.2362 56.69291 503.5205 56.69291 495.2362 L 56.69291 270.1181 C 56.69291 261.83384 63.40864 255.1181 71.69291 255.1181 Z" stroke="black" stroke-linecap="round" stroke-linejoin="round" stroke-width="40"/>
        </g>
      </g>
      <g id="Graphic_31">
        <title>path1360</title>
        <path d="M 222.67716 474.98146 C 229.47412 510.6 236.2711 546.2185 244.01962 546.2185 M 265.34248 474.98025 C 258.54552 510.5988 251.74856 546.2173 244.00002 546.2173 M 265.34115 474.9864 C 272.1381 439.36785 278.93507 403.74933 286.6836 403.74933 M 308.00645 474.9876 C 301.2095 439.36906 294.41253 403.75054 286.664 403.75054 M 308.0171 475.0029 C 314.81405 510.6214 321.611 546.23995 329.35954 546.23995 M 350.6824 475.0017 C 343.88544 510.6202 337.08847 546.23874 329.33995 546.23874 M 350.681 475.0078 C 357.47797 439.3893 364.27493 403.77077 372.02346 403.77077 M 393.3463 475.00903 C 386.54936 439.3905 379.7524 403.772 372.00386 403.772 M 393.34236 474.9918 C 400.13933 510.6103 406.9363 546.22884 414.6848 546.22884 M 436.0077 474.9906 C 429.2107 510.6091 422.41376 546.2276 414.6652 546.2276 M 436.0063 474.9967 C 442.80324 439.3782 449.6002 403.75966 457.34875 403.75966 M 478.6716 474.9979 C 471.87464 439.3794 465.0777 403.76087 457.32915 403.76087 M 478.6707 474.9926 C 485.4677 510.6111 492.26464 546.2296 500.0132 546.2296 M 521.33604 474.99136 C 514.5391 510.6099 507.7421 546.2284 499.9936 546.2284 M 521.3347 474.9975 C 528.1317 439.37896 534.9286 403.76044 542.67716 403.76044" stroke="black" stroke-linecap="butt" stroke-linejoin="round" stroke-width="11"/>
      </g>
      <g id="Graphic_32">
        <title>path5806</title>
        <path d="M 242.92286 474.99374 C 238.68192 482.88385 234.44098 490.77395 229.6063 490.77395 M 242.922 474.9951 C 247.16293 467.105 251.40387 459.2149 256.23855 459.2149 M 269.54287 474.99537 C 265.30193 467.10526 261.061 459.21515 256.2263 459.21515 M 269.54232 474.9942 C 273.78326 482.8843 278.0242 490.7744 282.85888 490.7744 M 296.1632 474.9939 C 291.92226 482.884 287.6813 490.7741 282.84664 490.7741 M 296.16237 474.99527 C 300.4033 467.10516 304.64425 459.21506 309.47892 459.21506 M 322.78325 474.99554 C 318.5423 467.10543 314.30137 459.2153 309.4667 459.2153 M 322.78072 474.9917 C 327.02166 482.8818 331.2626 490.77193 336.0973 490.77193 M 349.4016 474.99145 C 345.16067 482.88156 340.91973 490.77166 336.08505 490.77166 M 349.40078 474.9928 C 353.64173 467.1027 357.88266 459.2126 362.71734 459.2126 M 376.02166 474.9931 C 371.78072 467.10297 367.53978 459.21286 362.7051 459.21286 M 376.0283 474.99647 C 380.26924 482.8866 384.5102 490.7767 389.34486 490.7767 M 402.6492 474.9962 C 398.40824 482.8863 394.1673 490.7764 389.33262 490.7764 M 402.6483 474.99756 C 406.88925 467.10745 411.1302 459.21735 415.96487 459.21735 M 429.2692 474.9978 C 425.02826 467.1077 420.7873 459.2176 415.95264 459.2176 M 429.26673 474.994 C 433.5077 482.8841 437.7486 490.7742 442.5833 490.7742 M 455.8876 474.99374 C 451.6467 482.88385 447.40573 490.77395 442.57107 490.77395 M 455.88675 474.9951 C 460.1277 467.105 464.36863 459.2149 469.2033 459.2149 M 482.5076 474.99537 C 478.2667 467.10526 474.02574 459.21515 469.19107 459.21515 M 482.5071 474.9942 C 486.748 482.8843 490.98897 490.7744 495.82364 490.7744 M 509.12797 474.9939 C 504.887 482.884 500.6461 490.7741 495.8114 490.7741 M 509.12714 474.99527 C 513.3681 467.10516 517.609 459.21506 522.4437 459.21506 M 535.748 474.99554 C 531.5071 467.10543 527.26614 459.2153 522.43147 459.2153" stroke="black" stroke-linecap="butt" stroke-linejoin="round" stroke-width="11"/>
      </g>
    </g>
  </g>
</svg>
